<svg width="357" height="73" viewBox="0 0 357 73" fill="none" xmlns="http://www.w3.org/2000/svg">
<path d="M21.8906 72.7969C17.4844 72.7969 13.6406 71.7031 10.3594 69.5156C7.07812 67.3281 4.53125 64.2031 2.71875 60.1406C0.90625 56.0781 0 51.2344 0 45.6094C0 40.3906 0.921875 35.75 2.76562 31.6875C4.60938 27.625 7.1875 24.4375 10.5 22.125C13.8125 19.8125 17.6719 18.6562 22.0781 18.6562C24.4219 18.6562 26.5156 19 28.3594 19.6875C30.2344 20.375 31.8906 21.3594 33.3281 22.6406C34.7969 23.8906 36.1094 25.4062 37.2656 27.1875H37.4531C37.3594 25.5938 37.2656 23.7656 37.1719 21.7031C37.1094 19.6406 37.0781 17.5312 37.0781 15.375V0H52.125V71.4375H37.6406V63.6562H37.4531C35.9844 66.7812 33.8906 69.0938 31.1719 70.5938C28.4531 72.0625 25.3594 72.7969 21.8906 72.7969ZM25.9219 60.7031C28.3594 60.7031 30.4375 60.0781 32.1562 58.8281C33.9062 57.5469 35.2344 55.7656 36.1406 53.4844C37.0781 51.2031 37.5469 48.5781 37.5469 45.6094C37.5469 42.6094 37.125 39.9375 36.2812 37.5938C35.4375 35.25 34.1562 33.4062 32.4375 32.0625C30.75 30.7188 28.6094 30.0469 26.0156 30.0469C23.6719 30.0469 21.7031 30.7031 20.1094 32.0156C18.5469 33.3281 17.3594 35.1562 16.5469 37.5C15.7656 39.8125 15.375 42.4844 15.375 45.5156C15.375 48.5781 15.7656 51.25 16.5469 53.5312C17.3281 55.8125 18.5 57.5781 20.0625 58.8281C21.6562 60.0781 23.6094 60.7031 25.9219 60.7031ZM81.6094 72.7969C77.2031 72.7969 73.3594 71.7031 70.0781 69.5156C66.7969 67.3281 64.25 64.2031 62.4375 60.1406C60.625 56.0781 59.7188 51.2344 59.7188 45.6094C59.7188 40.3906 60.6406 35.75 62.4844 31.6875C64.3281 27.625 66.9062 24.4375 70.2188 22.125C73.5312 19.8125 77.3906 18.6562 81.7969 18.6562C84.1406 18.6562 86.2344 19 88.0781 19.6875C89.9531 20.375 91.6094 21.3594 93.0469 22.6406C94.5156 23.8906 95.8281 25.4062 96.9844 27.1875H97.1719C97.0781 25.5938 96.9844 23.7656 96.8906 21.7031C96.8281 19.6406 96.7969 17.5312 96.7969 15.375V0H111.844V71.4375H97.3594V63.6562H97.1719C95.7031 66.7812 93.6094 69.0938 90.8906 70.5938C88.1719 72.0625 85.0781 72.7969 81.6094 72.7969ZM85.6406 60.7031C88.0781 60.7031 90.1562 60.0781 91.875 58.8281C93.625 57.5469 94.9531 55.7656 95.8594 53.4844C96.7969 51.2031 97.2656 48.5781 97.2656 45.6094C97.2656 42.6094 96.8438 39.9375 96 37.5938C95.1562 35.25 93.875 33.4062 92.1562 32.0625C90.4688 30.7188 88.3281 30.0469 85.7344 30.0469C83.3906 30.0469 81.4219 30.7031 79.8281 32.0156C78.2656 33.3281 77.0781 35.1562 76.2656 37.5C75.4844 39.8125 75.0938 42.4844 75.0938 45.5156C75.0938 48.5781 75.4844 51.25 76.2656 53.5312C77.0469 55.8125 78.2188 57.5781 79.7812 58.8281C81.375 60.0781 83.3281 60.7031 85.6406 60.7031ZM146.438 72.7969C140.875 72.7969 136.062 71.6094 132 69.2344C127.969 66.8594 124.859 63.6406 122.672 59.5781C120.516 55.4844 119.438 50.8906 119.438 45.7969C119.438 40.6719 120.547 36.0781 122.766 32.0156C124.984 27.9219 128.062 24.6875 132 22.3125C135.938 19.9375 140.484 18.75 145.641 18.75C149.297 18.75 152.609 19.3281 155.578 20.4844C158.547 21.6094 161.094 23.2031 163.219 25.2656C166.094 28.0469 168.203 31.5312 169.547 35.7188C170.891 39.9062 171.531 44.5156 171.469 49.5469H134.25C134.562 52.1094 135.219 54.3125 136.219 56.1562C137.25 57.9688 138.625 59.375 140.344 60.375C142.094 61.3438 144.188 61.8281 146.625 61.8281C148.969 61.8281 150.906 61.3906 152.438 60.5156C153.969 59.6406 155.141 58.4219 155.953 56.8594H170.531C169.688 59.8594 168.203 62.5625 166.078 64.9688C163.953 67.375 161.234 69.2812 157.922 70.6875C154.641 72.0938 150.812 72.7969 146.438 72.7969ZM134.344 40.8281H156.141C155.984 38.4531 155.438 36.4219 154.5 34.7344C153.594 33.0156 152.391 31.7031 150.891 30.7969C149.391 29.8594 147.641 29.3906 145.641 29.3906C143.359 29.3906 141.438 29.8594 139.875 30.7969C138.312 31.7344 137.078 33.0625 136.172 34.7812C135.266 36.4688 134.656 38.4844 134.344 40.8281ZM199.078 72C195.891 72 193.078 71.5938 190.641 70.7812C188.234 69.9688 186.359 68.5781 185.016 66.6094C183.672 64.6406 183 61.9219 183 58.4531V29.5781H175.219V19.875H183V3.42188H197.859V19.875H207.938V29.5781H197.859V55.1719C197.859 57.0781 198.359 58.375 199.359 59.0625C200.391 59.75 201.812 60.0938 203.625 60.0938C204.125 60.0938 204.703 60.0781 205.359 60.0469C206.016 59.9844 206.594 59.9375 207.094 59.9062H207.844V71.25C207.031 71.375 205.875 71.5312 204.375 71.7188C202.875 71.9062 201.109 72 199.078 72ZM236.016 72C232.828 72 230.016 71.5938 227.578 70.7812C225.172 69.9688 223.297 68.5781 221.953 66.6094C220.609 64.6406 219.938 61.9219 219.938 58.4531V29.5781H212.156V19.875H219.938V3.42188H234.797V19.875H244.875V29.5781H234.797V55.1719C234.797 57.0781 235.297 58.375 236.297 59.0625C237.328 59.75 238.75 60.0938 240.562 60.0938C241.062 60.0938 241.641 60.0781 242.297 60.0469C242.953 59.9844 243.531 59.9375 244.031 59.9062H244.781V71.25C243.969 71.375 242.812 71.5312 241.312 71.7188C239.812 71.9062 238.047 72 236.016 72ZM268.828 72.7969C265.484 72.7969 262.484 72.2188 259.828 71.0625C257.203 69.875 255.125 68.125 253.594 65.8125C252.094 63.5 251.344 60.6719 251.344 57.3281C251.344 53.5469 252.234 50.6094 254.016 48.5156C255.828 46.4219 258.25 44.8906 261.281 43.9219C264.344 42.9219 267.719 42.2031 271.406 41.7656C274.469 41.3594 276.938 40.9062 278.812 40.4062C280.719 39.875 282.109 39.2031 282.984 38.3906C283.859 37.5781 284.297 36.5312 284.297 35.25C284.297 33.4062 283.672 31.9219 282.422 30.7969C281.203 29.6719 279.297 29.1094 276.703 29.1094C273.828 29.1094 271.672 29.7188 270.234 30.9375C268.797 32.1562 267.984 33.7812 267.797 35.8125H253.875C254 32.9062 254.891 30.1719 256.547 27.6094C258.203 25.0156 260.672 22.9219 263.953 21.3281C267.266 19.7344 271.453 18.9375 276.516 18.9375C279.766 18.9375 282.578 19.1875 284.953 19.6875C287.359 20.1562 289.438 20.9219 291.188 21.9844C293.844 23.5156 295.797 25.5781 297.047 28.1719C298.328 30.7656 298.969 33.7969 298.969 37.2656V63.4688C298.969 65.4688 299.125 67.0469 299.438 68.2031C299.75 69.3594 300.234 70.1562 300.891 70.5938V71.4375H286.219C285.812 70.8438 285.453 70.0156 285.141 68.9531C284.859 67.8906 284.641 66.6406 284.484 65.2031H284.297C282.609 67.5469 280.594 69.4062 278.25 70.7812C275.906 72.125 272.766 72.7969 268.828 72.7969ZM273.562 62.9062C275.812 62.9062 277.766 62.4844 279.422 61.6406C281.078 60.7656 282.359 59.5938 283.266 58.125C284.203 56.625 284.672 54.9531 284.672 53.1094V46.5C283.953 46.9375 283.109 47.3281 282.141 47.6719C281.203 47.9844 280.203 48.2812 279.141 48.5625C278.078 48.8438 276.984 49.1094 275.859 49.3594C273.641 49.8281 271.797 50.3594 270.328 50.9531C268.891 51.5469 267.812 52.3125 267.094 53.25C266.406 54.1562 266.062 55.3594 266.062 56.8594C266.062 58.3281 266.391 59.5156 267.047 60.4219C267.734 61.2969 268.641 61.9375 269.766 62.3438C270.922 62.7188 272.188 62.9062 273.562 62.9062ZM324.516 72.7969C321.172 72.7969 318.172 72.2188 315.516 71.0625C312.891 69.875 310.812 68.125 309.281 65.8125C307.781 63.5 307.031 60.6719 307.031 57.3281C307.031 53.5469 307.922 50.6094 309.703 48.5156C311.516 46.4219 313.938 44.8906 316.969 43.9219C320.031 42.9219 323.406 42.2031 327.094 41.7656C330.156 41.3594 332.625 40.9062 334.5 40.4062C336.406 39.875 337.797 39.2031 338.672 38.3906C339.547 37.5781 339.984 36.5312 339.984 35.25C339.984 33.4062 339.359 31.9219 338.109 30.7969C336.891 29.6719 334.984 29.1094 332.391 29.1094C329.516 29.1094 327.359 29.7188 325.922 30.9375C324.484 32.1562 323.672 33.7812 323.484 35.8125H309.562C309.688 32.9062 310.578 30.1719 312.234 27.6094C313.891 25.0156 316.359 22.9219 319.641 21.3281C322.953 19.7344 327.141 18.9375 332.203 18.9375C335.453 18.9375 338.266 19.1875 340.641 19.6875C343.047 20.1562 345.125 20.9219 346.875 21.9844C349.531 23.5156 351.484 25.5781 352.734 28.1719C354.016 30.7656 354.656 33.7969 354.656 37.2656V63.4688C354.656 65.4688 354.812 67.0469 355.125 68.2031C355.438 69.3594 355.922 70.1562 356.578 70.5938V71.4375H341.906C341.5 70.8438 341.141 70.0156 340.828 68.9531C340.547 67.8906 340.328 66.6406 340.172 65.2031H339.984C338.297 67.5469 336.281 69.4062 333.938 70.7812C331.594 72.125 328.453 72.7969 324.516 72.7969ZM329.25 62.9062C331.5 62.9062 333.453 62.4844 335.109 61.6406C336.766 60.7656 338.047 59.5938 338.953 58.125C339.891 56.625 340.359 54.9531 340.359 53.1094V46.5C339.641 46.9375 338.797 47.3281 337.828 47.6719C336.891 47.9844 335.891 48.2812 334.828 48.5625C333.766 48.8438 332.672 49.1094 331.547 49.3594C329.328 49.8281 327.484 50.3594 326.016 50.9531C324.578 51.5469 323.5 52.3125 322.781 53.25C322.094 54.1562 321.75 55.3594 321.75 56.8594C321.75 58.3281 322.078 59.5156 322.734 60.4219C323.422 61.2969 324.328 61.9375 325.453 62.3438C326.609 62.7188 327.875 62.9062 329.25 62.9062Z" fill="black"/>
</svg>
